<svg xmlns="http://www.w3.org/2000/svg" viewBox="0 0 48 48"><path fill="#5A5A5A" d="M21 8h6c1.657 0 3 1.343 3 3v26c0 1.657-1.343 3-3 3h-6c-1.657 0-3-1.343-3-3V11c0-1.657 1.343-3 3-3z"/><circle cx="24" cy="24" r="9" fill="#E6E6E6"/><path fill="#24B7E3" d="M24 34c-5.523 0-10-4.477-10-10s4.477-10 10-10 10 4.477 10 10-4.477 10-10 10zm0-2c4.418 0 8-3.582 8-8s-3.582-8-8-8-8 3.582-8 8 3.582 8 8 8z"/><path fill="#B1B1B1" d="M26.464 26.668c.377-.404.355-1.037-.05-1.414l-2.193-2.046c-.403-.376-1.036-.354-1.412.05-.377.404-.355 1.036.05 1.413l2.193 2.047c.405.377 1.038.355 1.414-.05z"/><path fill="#B1B1B1" d="M26.95 20.283c-.405-.377-1.038-.355-1.414.05l-2.728 2.925c-.377.404-.355 1.036.05 1.413.403.378 1.036.356 1.412-.048l2.728-2.926c.377-.404.355-1.036-.05-1.413z"/></svg>
