<svg xmlns="http://www.w3.org/2000/svg" viewBox="0 0 48 48"><path fill="#5A5A5A" d="M10.485 33.11h7.848v4.63c0 1.248-1.012 2.26-2.26 2.26h-3.327c-1.25 0-2.26-1.012-2.26-2.26v-4.63zM31.788 33.11h7.848v4.63c0 1.248-1.012 2.26-2.26 2.26h-3.327c-1.25 0-2.262-1.012-2.262-2.26v-4.63z"/><path fill="#EA4545" d="M18.04 9h13.57c2.704 0 5.028 1.914 5.548 4.566l2.478 12.656H9.364L12.552 13.3c.623-2.526 2.888-4.3 5.49-4.3zm1 4.593c-1.066 0-1.987.744-2.21 1.787l-1 4.663c-.033.156-.05.314-.05.474 0 1.248 1.013 2.26 2.26 2.26h13.903c.144 0 .288-.013.43-.04 1.225-.237 2.027-1.423 1.79-2.65l-.9-4.662c-.205-1.064-1.137-1.832-2.22-1.832H19.04z"/><path fill="#EA4545" d="M11.653 21.4h25.694C40.47 21.4 43 23.93 43 27.053v2.472c0 3.122-2.53 5.653-5.653 5.653H11.653C8.53 35.178 6 32.648 6 29.525v-2.472C6 23.93 8.53 21.4 11.653 21.4z"/><ellipse cx="13.479" cy="28.404" fill="#E7B120" rx="2.803" ry="2.87"/><ellipse cx="35.525" cy="28.404" fill="#E7B120" rx="2.803" ry="2.87"/><path fill="#020101" d="M20.39 25.533h8.22c1.136 0 2.057.92 2.057 2.056v2.088c0 1.135-.92 2.055-2.056 2.055h-8.22c-1.136 0-2.057-.92-2.057-2.055v-2.09c0-1.134.92-2.055 2.056-2.055z" opacity=".084"/></svg>
