<svg xmlns="http://www.w3.org/2000/svg" viewBox="0 0 48 48"><path fill="#FF8F8F" d="M12.498 35.68C9.155 32.3 9.453 28.924 13.56 25.015l.51.51.78.778 1.555-1.555-1.358-1.36c-.803-.802-2.1-.82-2.926-.042-5.022 4.74-5.475 9.546-1.186 13.88 4.3 4.342 9.104 3.87 13.854-1.232.77-.827.748-2.116-.052-2.916l-1.305-1.305-1.554 1.556 1.236 1.238c-3.92 4.174-7.276 4.483-10.614 1.11z"/><path fill="#E7B120" d="M28.284 14.85l4.95 4.95-8.485 8.484-4.95-4.95"/><path fill="#E7B120" d="M27.224 20.86c2.538 2.538 6.654 2.538 9.192 0 2.538-2.54 2.538-6.654 0-9.193-2.538-2.538-6.654-2.538-9.192 0-2.54 2.54-2.54 6.654 0 9.193z"/><path fill="#FB5252" d="M16.78 11.26l5.76 7.743 7.363 7.365 6.854 5.02c.89.653 1.085 1.904.432 2.796-.456.62-1.226.925-1.982.784L24.06 32.885 21.21 35.74 12.34 26.87l2.854-2.853-1.987-11.22c-.193-1.086.533-2.124 1.62-2.317.746-.132 1.503.168 1.954.776z"/></svg>
