<svg xmlns="http://www.w3.org/2000/svg" viewBox="0 0 48 48"><path fill="#794A83" d="M5 11h38.113c.553 0 1 .448 1 1v25.608c0 .553-.447 1-1 1H28.37c-1.33.973-2.74 1.457-4.23 1.453-1.49-.004-2.787-.473-3.892-1.406l-15.25-.043c-.552 0-.998-.448-.998-1V12c0-.552.448-1 1-1z"/><path fill="#CCC" d="M8.107 10h13.846L24 11.536 25.934 10h13.8c.553 0 1 .448 1 1v23.315c0 .552-.447 1-1 1h-.025l-13.75-.354L24 35.976l-2.047-1.014H8.107c-.552 0-1-.447-1-1V11c0-.552.448-1 1-1z"/><path fill="#F0F0F0" d="M10 8h11.953L24 9.536 25.934 8H38c.552 0 1 .448 1 1v22.96c0 .553-.448 1-1 1H25.96L24 33.976l-2.047-1.014H10c-.552 0-1-.447-1-1V9c0-.552.448-1 1-1z"/><path fill="#DFDFDF" d="M12 19h8c.552 0 1 .448 1 1s-.448 1-1 1h-8c-.552 0-1-.448-1-1s.448-1 1-1zM12 22h8c.552 0 1 .448 1 1s-.448 1-1 1h-8c-.552 0-1-.448-1-1s.448-1 1-1zM12 25h8c.552 0 1 .448 1 1s-.448 1-1 1h-8c-.552 0-1-.448-1-1s.448-1 1-1zM27 14h5c.552 0 1 .448 1 1s-.448 1-1 1h-5c-.552 0-1-.448-1-1s.448-1 1-1zM27 17h8c.552 0 1 .448 1 1s-.448 1-1 1h-8c-.552 0-1-.448-1-1s.448-1 1-1zM27 20h8c.552 0 1 .448 1 1s-.448 1-1 1h-8c-.552 0-1-.448-1-1s.448-1 1-1zM27 23h8c.552 0 1 .448 1 1s-.448 1-1 1h-8c-.552 0-1-.448-1-1s.448-1 1-1zM27 26h8c.552 0 1 .448 1 1s-.448 1-1 1h-8c-.552 0-1-.448-1-1s.448-1 1-1zM12 11h4c.552 0 1 .448 1 1v4c0 .552-.448 1-1 1h-4c-.552 0-1-.448-1-1v-4c0-.552.448-1 1-1z"/></svg>
