<svg viewBox="0 0 48 48" xmlns="http://www.w3.org/2000/svg"><path d="M16.75 10c2.53 1.752 4.832 2.637 6.912 2.654 2.08.018 4.323-.867 6.728-2.654l14.424 5.42-2.433 7.36-6.22-1.933L34.504 38h-21.19l-2.066-17.153-5.634 1.933-2.45-7.36L16.75 10z" fill="#5CD5F9"/><path fill="#08ABDC" d="M2.96 15.505l2.487-1.04 2.364 7.49-2.363.878M44.81 15.505l-2.485-1.04-2.364 7.49 2.365.878M16.048 11.36c2.367 1.562 5.166 2.42 8.37 2.583 3.312.168 6.223-.724 8.655-2.67.702-.563.816-1.59.253-2.29-.562-.704-1.588-.818-2.29-.255-1.796 1.438-3.92 2.09-6.453 1.96-2.642-.135-4.88-.82-6.74-2.048-.75-.496-1.76-.29-2.257.462-.496.752-.29 1.762.462 2.258z"/></svg>
