<svg viewBox="0 0 48 48" xmlns="http://www.w3.org/2000/svg"><path d="M8.167 9h31.666C41.583 9 43 10.343 43 12v21c0 1.657-1.418 3-3.167 3H8.167C6.417 36 5 34.657 5 33V12c0-1.657 1.418-3 3.167-3z" fill="#5A5A5A"/><path d="M9.143 12h29.714c.63 0 1.143.527 1.143 1.176v17.648c0 .65-.512 1.176-1.143 1.176H9.143C8.513 32 8 31.473 8 30.824V13.176C8 12.526 8.512 12 9.143 12z" fill="#24B7E3"/><path d="M2.043 34h43.914c1.13 0 2.043.746 2.043 1.667v1.666c0 .92-.914 1.667-2.043 1.667H2.043C.913 39 0 38.254 0 37.333v-1.666C0 34.747.914 34 2.043 34z" fill="#E6E6E6"/><path d="M20 35h9c.552 0 1-.448 1-1s-.448-1-1-1h-9c-.552 0-1 .448-1 1s.448 1 1 1z" fill="#5A5A5A"/></svg>
