<svg viewBox="0 0 48 48" xmlns="http://www.w3.org/2000/svg"><path d="M13.306 37.133c3.58 0 8.306-5.564 8.306-10.18 0-4.618-3.72-8.36-8.306-8.36C8.72 18.592 5 22.334 5 26.952c0 4.616 4.727 10.18 8.306 10.18z" fill="#E7B120"/><path d="M15.285 38.42l-1.375-2.6c-.142-.27-.475-.372-.744-.23-.097.052-.176.13-.228.228l-1.38 2.593c-.14.27-.04.602.23.745.078.042.166.064.255.064l2.754.008c.304 0 .55-.244.552-.548 0-.09-.023-.18-.065-.26z" fill="#E7B120"/><path d="M11.99 20.623l.057-.01c.62-.092 1.2.336 1.294.958.043.28-.022.568-.18.803L9.176 28.31c-.31.463-.937.586-1.4.276-.234-.157-.39-.405-.434-.684l-.01-.066c-.248-1.61.067-3.26.89-4.665.807-1.375 2.19-2.31 3.768-2.547z" fill="#FFF" opacity=".164"/><g><path d="M33.694 37.888c3.58 0 8.306-5.564 8.306-10.18 0-4.618-3.72-8.36-8.306-8.36-4.587 0-8.306 3.742-8.306 8.36 0 4.616 4.727 10.18 8.306 10.18z" fill="#F46F41"/><path d="M35.673 39.176l-1.375-2.6c-.142-.27-.475-.372-.744-.23-.097.05-.177.13-.228.228l-1.38 2.592c-.142.268-.04.6.228.744.08.042.167.064.257.064l2.755.01c.303 0 .55-.245.55-.55.002-.09-.02-.178-.062-.258z" fill="#F46F41"/><path d="M32.377 21.378l.058-.01c.62-.092 1.2.336 1.293.958.042.28-.022.567-.18.802l-3.984 5.938c-.31.462-.937.585-1.4.275-.234-.156-.392-.404-.434-.683l-.01-.066c-.248-1.61.067-3.258.89-4.664.806-1.376 2.19-2.312 3.767-2.548z" fill="#FFF" opacity=".164"/></g><g><path d="M23.122 30.12c4.88 0 11.327-7.538 11.327-13.793C34.45 10.07 29.377 5 23.12 5c-6.255 0-11.326 5.07-11.326 11.327 0 6.255 6.446 13.793 11.326 13.793z" fill="#05DAA3"/><path d="M25.812 31.858l-1.854-3.522c-.193-.367-.647-.508-1.013-.315-.133.07-.242.18-.312.312l-1.882 3.522c-.194.365-.056.82.31 1.015.108.057.23.087.353.087h3.735c.414 0 .75-.336.75-.75 0-.12-.03-.24-.086-.35z" fill="#05DAA3"/><path d="M21.31 7.754l.095-.014c.845-.126 1.632.457 1.758 1.302.057.383-.03.773-.248 1.094l-5.428 8.037c-.425.63-1.28.794-1.91.37-.316-.215-.53-.552-.588-.93l-.014-.083c-.338-2.186.09-4.42 1.215-6.327 1.1-1.863 2.98-3.13 5.12-3.45z" fill="#FFF" opacity=".164"/></g></svg>
