<svg viewBox="0 0 48 48" xmlns="http://www.w3.org/2000/svg"><g fill="none" fill-rule="evenodd"><path d="M23.18 8.266c3.098-.05 4.02 4.608 2.766 13.973l-5.044.087c-1.58-9.325-.82-14.01 2.277-14.06z" fill="#C22B72"/><path d="M34.384 12.293c2.336 2.036-.096 6.115-7.294 12.235l-3.807-3.31c5.065-7.986 8.766-10.962 11.1-8.925z" fill="#C22B72"/><path d="M12.06 12.765c-2.225 2.156.417 6.102 7.925 11.836l3.63-3.503c-5.477-7.71-9.328-10.488-11.554-8.332z" fill="#C22B72"/><path d="M12.114 35.587c-2.15-2.233.628-6.083 8.332-11.553l3.504 3.63c-5.742 7.514-9.687 10.155-11.836 7.923z" fill="#C22B72"/><path d="M35.053 35.362c2.15-2.232-.628-6.083-8.332-11.552l-3.503 3.628c5.74 7.515 9.687 10.157 11.836 7.924z" fill="#C22B72"/><path d="M23.762 40.034c3.098-.06 3.857-4.745 2.277-14.06l-5.045.088c-1.253 9.374-.33 14.03 2.767 13.972zM6.82 24.44c-.048-3.097 4.61-4.02 13.974-2.766l.088 5.044c-9.325 1.58-14.012.82-14.06-2.277z" fill="#C22B72"/><path d="M39.317 24.104c.05-3.098-4.608-4.02-13.973-2.766l-.088 5.043c9.324 1.582 14.01.823 14.06-2.276z" fill="#C22B72"/><path d="M16.856 8.813c3.883-1.84 6.136 2.22 6.76 12.182l-2.394 1.183c-6.794-7.07-8.25-11.524-4.366-13.365z" fill="#E65197"/><path d="M29.4 9.226c4.14 1.62 2.856 6.132-3.855 13.536l-2.52-1.14c.107-9.884 2.232-14.016 6.374-12.396zM8.396 18.237c-1.434 4.258 2.808 6.214 12.725 5.867l.932-2.305c-7.67-6.634-12.222-7.82-13.656-3.563zM17.737 39.277c-4.18-1.474-2.85-6.4 3.99-14.776l2.034.388c.165 11.066-1.843 15.863-6.023 14.39zM38.317 30.236c1.578-4.29-2.3-6.442-11.635-6.456l-1.293 2.06c7.04 7.22 11.35 8.687 12.927 4.396z" fill="#E65197"/><path d="M29.9 39.546c3.884-1.626 2.628-6.164-3.764-13.613l-2.714.935c.437 10.08 2.597 14.305 6.48 12.678zM8.05 30.686c-1.745-4 2.49-6.346 12.704-7.036l.873 2.238c-7.308 7.2-11.834 8.8-13.578 4.798zM38.796 17.895c-1.742-4.423-6.158-3.182-13.247 3.72l1.076 2.42c9.856.33 13.913-1.717 12.17-6.14z" fill="#E65197"/><ellipse fill="#E7B120" cx="23.902" cy="24" rx="3.616" ry="3.632"/></g></svg>
