<svg xmlns="http://www.w3.org/2000/svg" viewBox="0 0 48 48"><g fill="none" fill-rule="evenodd"><g><path fill="#CCC" d="M22 16.685l-.577-8.466c-.018-.254-.228-.45-.482-.45-.253 0-.463.196-.48.45l-.565 8.465c0 .36-.132.542-.395.542s-.378-.18-.344-.542l-.288-8.466c-.008-.252-.214-.45-.465-.45-.256 0-.47.193-.497.447l-.893 8.468c.022.36-.092.542-.34.542-.25 0-.357-.18-.32-.542V8.212c0-.244-.2-.443-.444-.443-.258 0-.48.183-.525.436-.65 3.562-.99 6.13-1.018 7.708-.026 1.457-.087 2.485.318 3.255.27.513 1.292 1.678 3.065 3.497l-.44 14.04c0 1.816.688 3.125 2.19 3.125 1.433 0 1.892-1.278 1.892-3.125l-.29-14.04c1.43-1.423 2.39-2.478 2.88-3.165.737-1.03.798-3.143.737-3.588-.03-.215-.354-2.78-.97-7.696-.032-.256-.25-.45-.51-.45-.25 0-.45.204-.45.454v8.463c0 .362-.127.543-.385.542-.258 0-.393-.18-.405-.542zM30.573 8.276c.005-.005.01-.01.017-.013.45-.318 1.075-.21 1.393.24.12.17.184.37.184.577v30.722c-1.063-.23-1.767-.495-2.112-.79-.517-.445-1.22-1.194-1.412-2.232-.13-.695.315-6.864.357-10.235.003-.255-.28-.232-.518-.285-.554-.125-1.368-.062-1.368-1.548 0-.88-.09-2.158-.173-3.816-.056-1.143 0-2.14 0-3.935 0-.96.077-2.455.513-4.282.147-.616.63-1.69 1.547-2.836.425-.53.78-1 1.573-1.566z"/><path fill="#4A4A4A" d="M17.727 26.26h3.363l.37 11.395c.036 1.132-.852 2.08-1.983 2.115-.033 0-.065.002-.097 0-1.145-.016-2.06-.957-2.042-2.102v-.04l.39-11.368zM28.727 26.26h3.363l.1 13.512c-2.187-.162-3.856-2.022-3.78-4.214l.317-9.298z"/></g></g></svg>
