<svg viewBox="0 0 48 48" xmlns="http://www.w3.org/2000/svg"><g fill="none" fill-rule="evenodd"><rect fill="#C22B72" x="9.143" y="18.286" width="29.714" height="21.714" rx="1.973"/><rect fill="#E65197" x="8" y="16" width="31.771" height="6.434" rx="1.973"/><path fill="#E65197" fill-rule="nonzero" d="M21.714 19.43V40h4.572V19.43"/><path d="M16.955 9.647c2.162-1.823 4.524-1.76 7.084.19v7.355h-8.09c-1.492-3.207-1.157-5.723 1.005-7.545zm2.173 3.312c-.743.625-.9 1.466-.476 2.523h3.02V12.96c-.954-.627-1.802-.627-2.544 0z" fill="#E65197"/><path d="M30.734 9.838c2.162 1.823 2.623 4.274 1.384 7.354h-8.15V9.838c2.348-1.822 4.603-1.822 6.766 0zm-1.77 3.12c-.742-.625-1.59-.625-2.544 0v2.525h3.02c.425-1.057.267-1.898-.475-2.524z" fill="#E65197"/></g></svg>
