<svg viewBox="0 0 48 48" xmlns="http://www.w3.org/2000/svg"><g transform="translate(5 5)" fill="none" fill-rule="evenodd"><rect fill="#794A83" x="5" y="8" width="6" height="10" rx="1"/><path d="M5.347 16.72l13.5-11.626c.376-.322.93-.322 1.306 0l13.5 11.625c.22.19.347.466.347.757V33.06c0 .552-.448 1-1 1H6c-.552 0-1-.448-1-1V17.477c0-.29.127-.568.347-.758z" fill="#E1E1E1"/><path fill="#794A83" fill-rule="nonzero" d="M19.87 3.104L.437 18.47l2.48 3.137L22.35 6.242"/><path fill="#794A83" fill-rule="nonzero" d="M38.212 18.728L20.032 2.934l-2.624 3.02 18.18 15.793"/><path d="M16 21h7c.552 0 1 .448 1 1v12h-9V22c0-.552.448-1 1-1z" fill="#C3C3C3"/><rect fill="#5CD5F9" x="7" y="21" width="6" height="7" rx="1"/><rect fill="#5CD5F9" x="26" y="21" width="6" height="7" rx="1"/></g></svg>
