<svg viewBox="0 0 48 48" xmlns="http://www.w3.org/2000/svg"><path d="M30.705 10.16l7.764.933c1.253.15 2.146 1.29 1.996 2.543-.062.508-.292.98-.653 1.343L23.688 31.103l-7.273-7.273L29.76 10.487c.248-.25.596-.37.945-.327z" fill="#C22B72"/><path d="M23.33 15.515l8.888 8.89L17.672 38.95c-1.34 1.34-3.51 1.34-4.85 0l-4.04-4.04c-1.338-1.34-1.338-3.51 0-4.85L23.33 15.516z" fill="#E6E6E6"/><path d="M18.104 19.347L28.61 29.853 18.103 40.358c-1.34 1.34-3.51 1.34-4.85 0L7.6 34.702c-1.34-1.34-1.34-3.51 0-4.85l10.506-10.505z" fill="#4A4A4A"/></svg>
