<svg viewBox="0 0 48 48" xmlns="http://www.w3.org/2000/svg"><path d="M9.22 21.118c5.542-3.023 10.635-4.535 15.28-4.535 3.54 0 7.39.912 11.55 2.736 1.484.65 3.802 1.638 6.95 2.962v-5.495c0-.638-.312-1.235-.836-1.6C36.944 11.56 31.056 9.744 24.5 9.74c-5.55-.002-10.62 1.298-15.21 3.9-.75.426-1.734 1.142-2.95 2.15v3.618c0 1.075.872 1.947 1.947 1.947.326 0 .647-.08.933-.237z" fill="#FB5252"/><path d="M6.788 15.14l2.432-1.45c-.765.426-1.22 1.114-1.366 2.067-.154.442.463 1.295.797 1.487 1.03.59 2.042 1.127 3.036 1.613 4.645 2.268 8.917 3.402 12.814 3.402 4.74 0 10.03-1.647 15.876-4.938.215-.12.564-.732.605-1.152.062-.63-.318-1.455-1.138-2.48l2.293 1.5c.54.354.865.955.865 1.6v5.266c0 .637-.312 1.234-.836 1.598-5.22 3.63-11.108 5.446-17.664 5.448-6.557.002-12.445-1.813-17.665-5.447-.523-.365-.835-.96-.835-1.6v-5.53c0-.57.3-1.095.788-1.386z" fill="#D63F3F"/><path d="M21.58 21.58h6.815c1.075 0 1.947.873 1.947 1.948v4.815c0 1.075-.872 1.947-1.947 1.947H21.58c-1.077 0-1.948-.872-1.948-1.947v-4.815c0-1.075.87-1.947 1.947-1.947z" fill="#E7B120"/><path d="M22.867 23.08c.76.258 1.466.397 2.12.415.65.018 1.353-.106 2.11-.374.506-.178 1.063.087 1.242.594.036.104.055.214.055.325v3.68c0 .396-.24.753-.608.902-1.003.407-1.937.612-2.8.617-.865.003-1.8-.202-2.805-.616-.365-.15-.603-.506-.603-.9V24c0-.538.435-.973.973-.973.107 0 .213.017.314.052z" fill="#D63F3F"/><path fill="#E7B120" d="M24.5 29.32v2.91h.974v-2.91M30.137 37.912c-.322.642-.963 1.044-1.673 1.048-.945.005-1.733-.698-1.876-1.62l-3.183.02c-.03.206-.092.407-.185.592-.322.642-.964 1.044-1.673 1.048-.504.003-.98-.194-1.338-.554-.36-.36-.56-.84-.562-1.354-.003-.555.25-1.102.642-1.453-.4-.35-.655-.868-.658-1.444-.002-.306.07-.61.205-.882.322-.643.963-1.044 1.673-1.048.944-.005 1.733.7 1.876 1.62l3.182-.02c.03-.206.093-.407.186-.592.322-.642.963-1.044 1.672-1.048.505-.003.98.194 1.34.554.358.36.557.84.56 1.354.002.305-.07.61-.206.88-.11.222-.26.415-.437.573.4.35.656.867.66 1.444 0 .306-.07.61-.206.882z"/><path d="M24.555 35.514v-1.837c0-.66.134-.87.405-.875.256-.005.385.193.385.875v1.837h.973v-1.837c0-1.16-.46-1.87-1.38-1.848-.903.02-1.357.72-1.357 1.847v1.837h.975z" fill="#E7B120"/></svg>
