<svg xmlns="http://www.w3.org/2000/svg" viewBox="0 0 48 48"><path fill="#555" d="M20.34 8h7.884c.815 0 1.55.495 1.854 1.25l1.616 4c.413 1.025-.082 2.19-1.106 2.604-.238.097-.492.146-.75.146H19c-1.105 0-2-.895-2-2 0-.216.035-.43.103-.635l1.34-4C18.716 8.55 19.48 8 20.34 8z"/><path fill="#555" d="M9 11h30c2.21 0 4 1.79 4 4v20c0 2.21-1.79 4-4 4H9c-2.21 0-4-1.79-4-4V15c0-2.21 1.79-4 4-4z"/><path fill="#D8D8D8" d="M8 11h32c1.657 0 3 1.343 3 3v2H5v-2c0-1.657 1.343-3 3-3z"/><circle cx="24" cy="24" r="8" fill="#24B7E3"/><path fill="#FFF" d="M24 34c-5.523 0-10-4.477-10-10s4.477-10 10-10 10 4.477 10 10-4.477 10-10 10zm0-2c4.418 0 8-3.582 8-8s-3.582-8-8-8-8 3.582-8 8 3.582 8 8 8z"/><path fill="#5CD5F9" d="M24 29.75c-3.176 0-5.75-2.574-5.75-5.75s2.574-5.75 5.75-5.75 5.75 2.574 5.75 5.75-2.574 5.75-5.75 5.75zm0-1.5c2.347 0 4.25-1.903 4.25-4.25s-1.903-4.25-4.25-4.25-4.25 1.903-4.25 4.25 1.903 4.25 4.25 4.25z"/><path fill="#D8D8D8" d="M8 39h32c1.657 0 3-1.343 3-3v-2H5v2c0 1.657 1.343 3 3 3z"/><circle cx="24" cy="24" r="1" fill="#FFF"/><circle cx="26.5" cy="21.5" r="1.5" fill="#FFF"/><circle cx="10" cy="16" r="2" fill="#EA4545"/></svg>
