<svg xmlns="http://www.w3.org/2000/svg" viewBox="0 0 48 48"><g fill="none" fill-rule="evenodd"><g><path fill="#24B7E3" d="M5 14.5c5.49 0 4.6 2.893 8.64 3.034 4.043.142 5.525-3.033 9.344-3.033.47 0 2.755 1.818 6.86 5.45 6.012.106 9.525.76 10.54 1.964 1.702 2.024 3.938 11.088 0 11.088-7.625 0-19.185-.144-34.68-.43-.47-.487-.704-.787-.704-.9V14.5z"/><path fill="#5CD5F9" d="M5 28.594h37.584l-.032 2.7c-.012.982-.81 1.77-1.79 1.77H6.79c-.99 0-1.792-.8-1.792-1.79v-2.68z"/><path fill="#FFF" d="M21.756 19.467l3.555-3.39 1.883 1.583-3.84 3.52c-.473.434-1.208.405-1.645-.064-.44-.47-.417-1.205.048-1.65zM25.11 21.157l2.94-2.77 1.81 1.58-3.152 2.905c-.474.437-1.213.41-1.652-.063-.44-.472-.416-1.21.053-1.653z"/></g></g></svg>
