<?xml version="1.0" encoding="iso-8859-1"?>
<!-- Generator: Adobe Illustrator 19.0.0, SVG Export Plug-In . SVG Version: 6.00 Build 0)  -->
<svg version="1.1" id="Capa_1" xmlns="http://www.w3.org/2000/svg" xmlns:xlink="http://www.w3.org/1999/xlink" x="0px" y="0px"
	 viewBox="0 0 512 512" style="enable-background:new 0 0 512 512;" xml:space="preserve">
<circle style="fill:#1B56DB;" cx="256" cy="256" r="256"/>
<path style="fill:#1C4F99;" d="M287.847,510.03C414.202,494.35,512,386.6,512,256c0-12.435-0.905-24.658-2.618-36.619
	L405.667,115.667l-29.072,15.238v57.428H89.667l113.217,113.218l-37.911,20.104l46.208,46.208L166.333,383l30.619,30.619
	l-3.796,1.72L287.847,510.03z"/>
<polygon style="fill:#EBEEF0;" points="374.333,321.654 164.973,321.654 104.58,169.667 374.333,169.667 "/>
<g>
	<rect x="255.57" y="169.67" style="fill:#CED7DB;" width="118.76" height="151.99"/>
	<polygon style="fill:#CED7DB;" points="374.333,269.654 374.333,221.667 125.242,221.667 144.31,269.654 	"/>
</g>
<rect x="255.57" y="221.67" style="fill:#AFBDC4;" width="118.76" height="47.988"/>
<rect x="89.67" y="164.33" style="fill:#CED7DB;" width="292.67" height="24"/>
<rect x="255.57" y="164.33" style="fill:#AFBDC4;" width="126.76" height="24"/>
<polygon style="fill:#7AE5FE;" points="383,383 166.333,383 166.333,363 363,363 363,115.667 405.667,115.667 405.667,135.667 
	383,135.667 "/>
<polygon style="fill:#00BED2;" points="363,115.667 363,363 255.571,363 255.571,383 383,383 383,135.667 405.667,135.667 
	405.667,115.667 "/>
<path style="fill:#7AE5FE;" d="M214,423.667c-16.726,0-30.333-13.607-30.333-30.333C183.667,376.607,197.274,363,214,363
	s30.333,13.607,30.333,30.333C244.333,410.059,230.726,423.667,214,423.667z M214,383c-5.698,0-10.333,4.636-10.333,10.333
	s4.636,10.333,10.333,10.333s10.333-4.635,10.333-10.333S219.698,383,214,383z"/>
<path style="fill:#00BED2;" d="M338.333,423.667c-16.726,0-30.333-13.607-30.333-30.333C308,376.607,321.607,363,338.333,363
	c16.727,0,30.334,13.607,30.334,30.333C368.667,410.059,355.06,423.667,338.333,423.667z M338.333,383
	c-5.697,0-10.333,4.636-10.333,10.333s4.636,10.333,10.333,10.333c5.698,0,10.334-4.635,10.334-10.333S344.031,383,338.333,383z"/>
<g>
</g>
<g>
</g>
<g>
</g>
<g>
</g>
<g>
</g>
<g>
</g>
<g>
</g>
<g>
</g>
<g>
</g>
<g>
</g>
<g>
</g>
<g>
</g>
<g>
</g>
<g>
</g>
<g>
</g>
</svg>
