<svg viewBox="0 0 48 48" xmlns="http://www.w3.org/2000/svg"><ellipse fill="#EA9D5C" cx="24.185" cy="16.148" rx="9.185" ry="9.148"/><ellipse fill="#EA9D5C" cx="17.778" cy="10.246" rx="3.259" ry="3.246"/><ellipse fill="#EA9D5C" cx="24.556" cy="28.508" rx="11.556" ry="11.508"/><path d="M18.074 10.333c.732-.762 1.124-1.24 1.177-1.438.196-.724-2.396-1.248-3.182 0-.785 1.248-.068 2.81.786 2.676.242-.037.648-.45 1.22-1.237z" fill="#BE7535"/><circle fill="#EA9D5C" cx="18.5" cy="37.5" r="3.5"/><circle fill="#EA9D5C" cx="30.5" cy="37.5" r="3.5"/><ellipse fill="#EA9D5C" cx="30.222" cy="10.246" rx="3.259" ry="3.246"/><path d="M29.954 10.333c-.73-.762-1.123-1.24-1.176-1.438-.196-.724 2.396-1.248 3.182 0s.07 2.81-.786 2.676c-.24-.037-.648-.45-1.22-1.237z" fill="#BE7535"/><path d="M19.856 23.362l-2.304-3.747-5.65 2.562c-1.26.57-1.818 2.054-1.247 3.313.058.128.127.25.205.366.915 1.357 2.757 1.715 4.113.8l4.883-3.294zM28.613 23.362l2.304-3.747 5.65 2.562c1.26.57 1.817 2.054 1.246 3.313-.058.128-.126.25-.204.366-.917 1.357-2.758 1.715-4.115.8l-4.882-3.294z" fill="#EA9D5C"/><ellipse fill="#8B572A" cx="21.333" cy="14.557" rx="1" ry="1"/><ellipse fill="#8B572A" cx="27.259" cy="14.557" rx="1" ry="1"/><ellipse fill="#FFE770" cx="24.296" cy="18.689" rx="3.259" ry="3.246"/><ellipse fill="#8B572A" cx="24.296" cy="16.033" rx="1.481" ry="1.18"/><path d="M23.92 16.918v1.74c0 .282-.06.347-.288.347-.23 0-.287-.064-.283-.34v-.516c0-.208-.17-.376-.376-.376-.207 0-.375.168-.375.375v.51c-.01.675.37 1.092 1.03 1.095.658.002 1.04-.413 1.04-1.096v-1.742c0-.207-.167-.375-.374-.375s-.375.168-.375.375z" fill="#8B572A"/><path d="M24.75 16.918v1.74c0 .282.06.347.29.347.23 0 .286-.064.282-.34v-.516c0-.208.168-.376.375-.376s.375.168.375.375v.51c.01.675-.37 1.092-1.03 1.095-.658.002-1.042-.413-1.042-1.096v-1.742c0-.207.168-.375.375-.375s.375.168.375.375z" fill="#8B572A"/><circle fill="#FFF" opacity=".166" cx="24.5" cy="30.5" r="6.5"/></svg>
