<svg viewBox="0 0 48 48" xmlns="http://www.w3.org/2000/svg"><path d="M9.216 15.917h29.966c1.325 0 2.4 1.075 2.4 2.4v17.867c0 1.326-1.075 2.4-2.4 2.4H9.216c-1.326 0-2.4-1.074-2.4-2.4V18.317c0-1.325 1.074-2.4 2.4-2.4z" fill="#EA9D5C"/><path d="M16.5 14.298h1.652c.883 0 1.6.717 1.6 1.6v22.705c0 .884-.717 1.6-1.6 1.6h-1.65c-.885 0-1.6-.716-1.6-1.6V15.898c0-.883.715-1.6 1.6-1.6zM30.245 14.298h1.65c.885 0 1.6.717 1.6 1.6v22.705c0 .884-.715 1.6-1.6 1.6h-1.65c-.883 0-1.6-.716-1.6-1.6V15.898c0-.883.717-1.6 1.6-1.6z" fill="#BE7535"/><path d="M18.902 16.888c-.3-5.827 1.37-8.288 5.17-8.288 3.808 0 5.51 2.472 5.272 8.305l-.065 1.6 3.196.13.066-1.6c.305-7.46-2.57-11.635-8.47-11.635-5.908 0-8.75 4.186-8.366 11.652l.082 1.598 3.196-.164-.082-1.598z" fill="#BE7535"/></svg>
